HIERARCHY
ROOT mixamorig:Hips
{
	OFFSET 0.000000 69.776680 0.000000
	CHANNELS 6 Xposition Yposition Zposition Xrotation Yrotation Zrotation
	JOINT mixamorig:Spine
	{
		OFFSET 0.000000 3.962402 -0.274300
		CHANNELS 3 Xrotation Yrotation Zrotation
		JOINT mixamorig:Spine1
		{
			OFFSET 0.000000 14.122147 -0.320033
			CHANNELS 3 Xrotation Yrotation Zrotation
			JOINT mixamorig:Spine2
			{
				OFFSET 0.000000 11.399124 -0.365735
				CHANNELS 3 Xrotation Yrotation Zrotation
				JOINT mixamorig:Neck
				{
					OFFSET 0.000000 9.938187 -0.411442
					CHANNELS 3 Xrotation Yrotation Zrotation
					JOINT mixamorig:Head
					{
						OFFSET 0.000000 8.579102 0.114200
						CHANNELS 3 Xrotation Yrotation Zrotation
						JOINT mixamorig:HeadTop_End
						{
							OFFSET 0.000000 25.089104 0.333900
							CHANNELS 3 Xrotation Yrotation Zrotation
							End Site
							{
								OFFSET 0.000000 25.091324 0.000000
							}
						}
					}
				}
				JOINT mixamorig:LeftShoulder
				{
					OFFSET 4.224100 8.888443 -0.424631
					CHANNELS 3 Xrotation Yrotation Zrotation
					JOINT mixamorig:LeftArm
					{
						OFFSET 8.606815 -2.106979 -0.026412
						CHANNELS 3 Xrotation Yrotation Zrotation
						JOINT mixamorig:LeftForeArm
						{
							OFFSET 18.975199 0.000000 0.000001
							CHANNELS 3 Xrotation Yrotation Zrotation
							JOINT mixamorig:LeftHand
							{
								OFFSET 19.896011 0.000000 0.000001
								CHANNELS 3 Xrotation Yrotation Zrotation
								JOINT mixamorig:LeftHandThumb1
								{
									OFFSET 2.354134 -1.272461 1.802826
									CHANNELS 3 Xrotation Yrotation Zrotation
									JOINT mixamorig:LeftHandThumb2
									{
										OFFSET 1.999432 -1.154373 1.154373
										CHANNELS 3 Xrotation Yrotation Zrotation
										JOINT mixamorig:LeftHandThumb3
										{
											OFFSET 2.113319 -1.220123 1.220126
											CHANNELS 3 Xrotation Yrotation Zrotation
											JOINT mixamorig:LeftHandThumb4
											{
												OFFSET 1.744274 -1.007057 1.007057
												CHANNELS 3 Xrotation Yrotation Zrotation
												End Site
												{
													OFFSET 1.605682 -1.003258 1.219047
												}
											}
										}
									}
								}
								JOINT mixamorig:LeftHandIndex1
								{
									OFFSET 7.198479 -0.169243 1.742686
									CHANNELS 3 Xrotation Yrotation Zrotation
									JOINT mixamorig:LeftHandIndex2
									{
										OFFSET 2.844902 0.000000 0.000000
										CHANNELS 3 Xrotation Yrotation Zrotation
										JOINT mixamorig:LeftHandIndex3
										{
											OFFSET 2.665497 0.000000 0.000000
											CHANNELS 3 Xrotation Yrotation Zrotation
											JOINT mixamorig:LeftHandIndex4
											{
												OFFSET 2.297401 0.000000 0.000000
												CHANNELS 3 Xrotation Yrotation Zrotation
												End Site
												{
													OFFSET 2.297401 0.000000 0.000300
												}
											}
										}
									}
								}
								JOINT mixamorig:LeftHandMiddle1
								{
									OFFSET 6.876549 0.000000 0.000000
									CHANNELS 3 Xrotation Yrotation Zrotation
									JOINT mixamorig:LeftHandMiddle2
									{
										OFFSET 3.256821 0.000000 0.000000
										CHANNELS 3 Xrotation Yrotation Zrotation
										JOINT mixamorig:LeftHandMiddle3
										{
											OFFSET 3.177902 0.000000 0.000000
											CHANNELS 3 Xrotation Yrotation Zrotation
											JOINT mixamorig:LeftHandMiddle4
											{
												OFFSET 2.695129 0.000000 0.000000
												CHANNELS 3 Xrotation Yrotation Zrotation
												End Site
												{
													OFFSET 2.695099 -0.000191 0.012399
												}
											}
										}
									}
								}
								JOINT mixamorig:LeftHandRing1
								{
									OFFSET 6.623886 -0.059456 -1.696961
									CHANNELS 3 Xrotation Yrotation Zrotation
									JOINT mixamorig:LeftHandRing2
									{
										OFFSET 2.958004 0.000000 0.000000
										CHANNELS 3 Xrotation Yrotation Zrotation
										JOINT mixamorig:LeftHandRing3
										{
											OFFSET 2.756901 0.000000 0.000000
											CHANNELS 3 Xrotation Yrotation Zrotation
											JOINT mixamorig:LeftHandRing4
											{
												OFFSET 2.334602 0.000000 0.000000
												CHANNELS 3 Xrotation Yrotation Zrotation
												End Site
												{
													OFFSET 2.334602 -0.000031 0.001500
												}
											}
										}
									}
								}
								JOINT mixamorig:LeftHandPinky1
								{
									OFFSET 6.046967 -0.139206 -3.244337
									CHANNELS 3 Xrotation Yrotation Zrotation
									JOINT mixamorig:LeftHandPinky2
									{
										OFFSET 2.623703 0.000000 0.000000
										CHANNELS 3 Xrotation Yrotation Zrotation
										JOINT mixamorig:LeftHandPinky3
										{
											OFFSET 2.132103 0.000000 0.000000
											CHANNELS 3 Xrotation Yrotation Zrotation
											JOINT mixamorig:LeftHandPinky4
											{
												OFFSET 1.793213 0.000000 0.000000
												CHANNELS 3 Xrotation Yrotation Zrotation
												End Site
												{
													OFFSET 1.793198 0.000099 -0.007099
												}
											}
										}
									}
								}
							}
						}
					}
				}
				JOINT mixamorig:RightShoulder
				{
					OFFSET -4.224100 8.888435 -0.398208
					CHANNELS 3 Xrotation Yrotation Zrotation
					JOINT mixamorig:RightArm
					{
						OFFSET -8.606817 -2.106972 0.026400
						CHANNELS 3 Xrotation Yrotation Zrotation
						JOINT mixamorig:RightForeArm
						{
							OFFSET -18.973604 0.000000 -0.000000
							CHANNELS 3 Xrotation Yrotation Zrotation
							JOINT mixamorig:RightHand
							{
								OFFSET -19.898298 0.000000 -0.000000
								CHANNELS 3 Xrotation Yrotation Zrotation
								JOINT mixamorig:RightHandThumb1
								{
									OFFSET -2.342537 -1.287621 1.805296
									CHANNELS 3 Xrotation Yrotation Zrotation
									JOINT mixamorig:RightHandThumb2
									{
										OFFSET -1.998871 -1.154045 1.154048
										CHANNELS 3 Xrotation Yrotation Zrotation
										JOINT mixamorig:RightHandThumb3
										{
											OFFSET -2.115639 -1.221466 1.221465
											CHANNELS 3 Xrotation Yrotation Zrotation
											JOINT mixamorig:RightHandThumb4
											{
												OFFSET -1.745159 -1.007568 1.007568
												CHANNELS 3 Xrotation Yrotation Zrotation
												End Site
												{
													OFFSET -1.638237 -1.006813 1.174085
												}
											}
										}
									}
								}
								JOINT mixamorig:RightHandIndex1
								{
									OFFSET -7.289619 -0.160568 1.788511
									CHANNELS 3 Xrotation Yrotation Zrotation
									JOINT mixamorig:RightHandIndex2
									{
										OFFSET -2.816299 0.000000 -0.000000
										CHANNELS 3 Xrotation Yrotation Zrotation
										JOINT mixamorig:RightHandIndex3
										{
											OFFSET -2.639603 0.000000 -0.000000
											CHANNELS 3 Xrotation Yrotation Zrotation
											JOINT mixamorig:RightHandIndex4
											{
												OFFSET -2.241501 0.000000 -0.000000
												CHANNELS 3 Xrotation Yrotation Zrotation
												End Site
												{
													OFFSET -2.241501 0.000000 -0.000300
												}
											}
										}
									}
								}
								JOINT mixamorig:RightHandMiddle1
								{
									OFFSET -7.060406 0.000000 -0.000000
									CHANNELS 3 Xrotation Yrotation Zrotation
									JOINT mixamorig:RightHandMiddle2
									{
										OFFSET -3.340210 0.000000 0.000000
										CHANNELS 3 Xrotation Yrotation Zrotation
										JOINT mixamorig:RightHandMiddle3
										{
											OFFSET -3.056713 0.000000 0.000000
											CHANNELS 3 Xrotation Yrotation Zrotation
											JOINT mixamorig:RightHandMiddle4
											{
												OFFSET -2.639503 0.000000 0.000000
												CHANNELS 3 Xrotation Yrotation Zrotation
												End Site
												{
													OFFSET -2.639503 -0.000008 0.000600
												}
											}
										}
									}
								}
								JOINT mixamorig:RightHandRing1
								{
									OFFSET -6.774601 0.049789 -1.636027
									CHANNELS 3 Xrotation Yrotation Zrotation
									JOINT mixamorig:RightHandRing2
									{
										OFFSET -2.923901 0.000000 0.000000
										CHANNELS 3 Xrotation Yrotation Zrotation
										JOINT mixamorig:RightHandRing3
										{
											OFFSET -2.718002 0.000000 0.000000
											CHANNELS 3 Xrotation Yrotation Zrotation
											JOINT mixamorig:RightHandRing4
											{
												OFFSET -2.379601 0.000000 0.000000
												CHANNELS 3 Xrotation Yrotation Zrotation
												End Site
												{
													OFFSET -2.379601 0.000000 -0.000300
												}
											}
										}
									}
								}
								JOINT mixamorig:RightHandPinky1
								{
									OFFSET -6.148533 -0.175697 -3.130196
									CHANNELS 3 Xrotation Yrotation Zrotation
									JOINT mixamorig:RightHandPinky2
									{
										OFFSET -2.627903 0.000000 0.000000
										CHANNELS 3 Xrotation Yrotation Zrotation
										JOINT mixamorig:RightHandPinky3
										{
											OFFSET -2.122501 0.000000 0.000000
											CHANNELS 3 Xrotation Yrotation Zrotation
											JOINT mixamorig:RightHandPinky4
											{
												OFFSET -1.792004 0.000000 0.000000
												CHANNELS 3 Xrotation Yrotation Zrotation
												End Site
												{
													OFFSET -1.792000 0.000046 -0.004500
												}
											}
										}
									}
								}
							}
						}
					}
				}
			}
		}
	}
	JOINT mixamorig:LeftUpLeg
	{
		OFFSET 7.557000 -4.826302 0.300500
		CHANNELS 3 Xrotation Yrotation Zrotation
		JOINT mixamorig:LeftLeg
		{
			OFFSET 0.315538 -24.058289 0.537030
			CHANNELS 3 Xrotation Yrotation Zrotation
			JOINT mixamorig:LeftFoot
			{
				OFFSET -0.315538 -33.061485 0.084935
				CHANNELS 3 Xrotation Yrotation Zrotation
				JOINT mixamorig:LeftToeBase
				{
					OFFSET 0.092043 -7.483322 10.511632
					CHANNELS 3 Xrotation Yrotation Zrotation
					JOINT mixamorig:LeftToe_End
					{
						OFFSET 0.082187 -0.046743 6.420126
						CHANNELS 3 Xrotation Yrotation Zrotation
						End Site
						{
							OFFSET 0.096298 -0.054795 6.419865
						}
					}
				}
			}
		}
	}
	JOINT mixamorig:RightUpLeg
	{
		OFFSET -7.557000 -4.826302 0.300500
		CHANNELS 3 Xrotation Yrotation Zrotation
		JOINT mixamorig:RightLeg
		{
			OFFSET -0.315556 -24.058254 0.712177
			CHANNELS 3 Xrotation Yrotation Zrotation
			JOINT mixamorig:RightFoot
			{
				OFFSET 0.315562 -33.061455 0.096916
				CHANNELS 3 Xrotation Yrotation Zrotation
				JOINT mixamorig:RightToeBase
				{
					OFFSET -0.092061 -7.483409 10.296515
					CHANNELS 3 Xrotation Yrotation Zrotation
					JOINT mixamorig:RightToe_End
					{
						OFFSET -0.082209 -0.046778 6.411424
						CHANNELS 3 Xrotation Yrotation Zrotation
						End Site
						{
							OFFSET -0.096323 -0.054825 6.411163
						}
					}
				}
			}
		}
	}
}
MOTION
Frames: 4
Frame Time: 0.033333
-2.907309 63.437698 -40.860397 30.147014 -4.043366 -17.542134 16.327646 -2.087980 -6.394097 7.926972 -0.780518 -2.933910 7.946864 -0.748726 -2.891567 9.740901 0.607206 -3.382546 -6.585214 -3.252518 7.693927 -0.000000 0.000000 0.000000 1.263646 -9.346707 3.320551 -35.009678 -34.336051 -41.448791 -0.000006 -55.929749 -0.000005 9.214553 -12.998883 43.365189 -16.817157 -14.505765 -6.907956 3.875478 7.215763 0.688258 15.949554 34.536472 -6.804376 0.000002 0.000003 -0.000001 -0.447182 -3.567171 -6.716733 2.497162 5.309036 -50.355713 0.831683 3.285488 -28.403719 0.000000 -0.000001 -0.000001 -0.199384 -0.836991 -8.521112 2.495386 5.307582 -50.336732 0.229395 1.765833 -14.801172 -0.000001 -0.000001 -0.000002 0.489587 2.862444 -13.366805 1.822272 4.670583 -42.608178 0.056006 0.878249 -7.297849 0.000001 -0.000003 -0.000001 2.689763 10.024687 -16.144312 0.453718 -1.605076 -21.271574 0.004911 0.260629 -2.160413 0.000002 0.000002 -0.000002 -0.050204 -3.947685 -0.194944 0.030065 45.626801 51.261745 -0.000006 34.148828 0.000001 -21.415862 -1.389400 8.340002 -9.597392 -0.038527 -16.219761 7.118976 -12.541640 0.544086 1.536349 2.593189 -0.703627 0.000003 0.000001 -0.000001 0.126680 -1.429905 16.241910 1.340542 -4.109176 36.122371 0.055828 -0.881282 7.251446 -0.000003 0.000002 0.000000 0.893039 -3.428165 31.977423 3.876774 -6.235478 63.709587 0.324013 -2.098904 17.503663 -0.000003 0.000003 0.000000 7.266169 -8.957736 52.632796 3.804644 -6.199550 63.043432 0.083315 -1.483461 12.135629 -0.000002 -0.000001 -0.000001 5.295525 -6.752596 74.587681 2.148127 -5.029555 46.233414 0.128327 -1.332354 11.002334 -0.000000 -0.000005 0.000002 -75.611062 -16.308965 14.547217 51.777547 9.365234 7.204025 -4.520386 1.204471 -1.111190 -0.210920 0.000336 -0.187462 -0.000000 0.000001 0.000001 -58.582437 -21.373684 6.013567 23.401941 -9.608335 6.925093 8.159068 -13.912065 0.283807 -3.349049 0.022822 -1.570299 0.000000 -0.000000 -0.000000 
-2.943504 63.845860 -40.556576 28.984300 -1.099661 -18.059536 15.919421 -1.778205 -6.503659 7.689525 -0.589893 -3.004117 7.702785 -0.568089 -2.976177 9.461066 0.623292 -3.246683 -5.615311 -2.755318 7.082862 -0.000002 -0.000000 0.000000 1.213026 -9.113458 2.847641 -31.863270 -36.683556 -43.627984 -0.000009 -53.545135 -0.000006 7.012938 -15.041518 43.296511 -16.121099 -13.919079 -6.601707 3.875493 7.215824 0.688211 14.993047 33.312687 -6.246247 0.000001 0.000000 0.000001 -0.558069 -3.885721 -7.641541 2.486516 5.300213 -50.240283 0.808662 3.242630 -27.999532 0.000001 0.000003 0.000002 -0.300162 -1.459219 -8.756129 2.340042 5.175403 -48.636428 0.212011 1.698753 -14.226306 -0.000000 -0.000001 0.000001 0.396361 2.511471 -12.844605 1.577526 4.390505 -39.510746 0.049977 0.829792 -6.893063 -0.000000 -0.000002 -0.000002 3.097354 10.999910 -16.783508 0.320587 -1.978100 -17.993759 0.005310 0.270837 -2.244741 0.000001 -0.000001 0.000001 -0.066076 -3.953883 -0.430648 6.172809 45.742316 48.142595 -0.000004 40.307736 0.000001 -17.508365 -1.837340 4.432641 -9.398568 -0.697742 -15.513175 7.822471 -13.693108 0.752700 2.149962 1.527768 -0.653250 0.000003 -0.000003 -0.000001 -0.008358 -1.139103 18.990738 1.285695 -4.033161 35.349825 0.062622 -0.932975 7.679279 -0.000002 -0.000003 0.000000 0.805520 -3.316250 33.552304 3.865187 -6.229808 63.602769 0.320566 -2.085013 17.386434 -0.000002 -0.000002 0.000003 7.448749 -9.048071 53.007377 3.761143 -6.177353 62.639829 0.079405 -1.484611 12.138015 0.000003 -0.000002 -0.000000 5.493588 -6.805189 74.823028 2.189094 -5.068312 46.698721 0.131888 -1.350549 11.154563 0.000001 -0.000002 -0.000001 -73.558439 -14.949133 13.994098 50.032942 8.136987 6.864092 -4.283121 -0.157922 -0.371813 -0.582513 0.000286 -0.178217 0.000000 -0.000002 -0.000000 -57.156519 -20.102662 4.554938 23.850244 -10.453566 7.101614 7.904288 -15.289771 0.947779 -3.420659 0.048595 -2.288112 0.000000 -0.000004 -0.000000 
-3.065880 64.339920 -40.199173 28.026361 2.193956 -18.554153 15.454063 -1.420690 -6.453568 7.421281 -0.382678 -3.019171 7.427403 -0.376566 -3.005522 9.128125 0.659450 -3.251749 -4.512991 -2.430793 6.788156 0.000003 -0.000000 0.000001 1.144654 -8.977391 1.760523 -28.225181 -38.441992 -45.432485 0.000029 -51.479197 0.000021 5.592510 -16.440399 41.258355 -15.111177 -13.030077 -6.188071 3.875713 7.216375 0.687836 14.037738 32.036688 -5.693713 -0.000001 0.000003 0.000001 -0.758901 -4.380372 -9.126661 2.456350 5.275107 -49.913383 0.777645 3.183685 -27.446089 0.000000 0.000001 0.000000 -0.400280 -2.190187 -8.614857 2.120149 4.973942 -46.150912 0.176301 1.551174 -12.967205 -0.000001 -0.000001 0.000001 0.305587 2.175035 -11.779170 1.300458 4.032080 -35.739320 0.041297 0.754475 -6.264713 0.000001 0.000001 0.000002 3.517988 12.213389 -16.951392 0.206036 -2.369305 -14.620020 0.006796 0.306531 -2.540883 -0.000002 0.000001 -0.000002 -0.078922 -3.833486 -0.796960 11.243248 45.524666 45.852590 -0.000031 45.969109 0.000003 -14.982235 -2.323721 2.282264 -9.135161 -1.438024 -14.907450 8.450431 -14.701149 0.940070 2.686109 0.605798 -0.607892 0.000003 0.000002 -0.000001 -0.121828 -0.959374 20.875502 1.235103 -3.961021 34.623742 0.062402 -0.931423 7.666365 0.000001 0.000001 0.000001 0.744461 -3.254253 34.750008 3.813884 -6.204192 63.128911 0.314029 -2.061533 17.186163 0.000001 0.000001 0.000003 7.576678 -9.083869 53.472820 3.728459 -6.160423 62.335639 0.076395 -1.482721 12.117989 -0.000001 0.000001 0.000003 5.606090 -6.833311 75.078116 2.197333 -5.076036 46.792065 0.133261 -1.357593 11.213457 -0.000002 0.000001 -0.000004 -71.231462 -13.400938 13.484870 47.754975 5.158964 6.483760 -3.714040 -0.164608 0.312762 -0.831834 0.000165 -0.135083 0.000000 0.000001 0.000000 -55.536449 -18.888022 3.104682 24.127657 -11.398510 7.245794 7.584105 -17.036450 2.075253 -3.374086 0.106729 -3.385513 -0.000000 0.000002 -0.000000 
-3.282488 64.854111 -39.828758 27.361710 5.680793 -19.226597 14.976851 -1.085753 -6.328535 7.160606 -0.189638 -2.997110 7.160628 -0.196845 -2.996191 8.749775 0.698370 -3.231708 -3.484797 -2.136860 6.620803 0.000002 -0.000002 -0.000001 1.068911 -8.845238 0.453151 -25.713611 -39.604312 -47.670571 0.000002 -48.900394 0.000007 4.401502 -15.682008 38.006369 -14.259357 -12.196149 -5.950036 3.875792 7.216544 0.687763 13.355919 31.091301 -5.302243 0.000003 0.000004 0.000002 -1.064979 -4.966627 -11.139400 2.408563 5.234701 -49.391632 0.748001 3.126033 -26.907370 0.000001 0.000004 0.000002 -0.408908 -2.429051 -8.186333 1.907775 4.761582 -43.648454 0.137104 1.369976 -11.429911 0.000000 -0.000001 0.000001 0.230286 1.862486 -10.729478 1.068035 3.688408 -32.287800 0.032269 0.667227 -5.537783 -0.000000 -0.000001 0.000003 3.845875 13.152645 -17.061324 0.135424 -2.666420 -12.092525 0.008437 0.341622 -2.831887 -0.000000 -0.000002 -0.000001 -0.086312 -3.827440 -0.921058 14.671530 45.393246 44.442245 -0.000012 50.497863 -0.000006 -13.427664 -3.647869 2.060115 -8.861976 -2.161730 -14.298663 9.016879 -15.594867 1.110066 3.094480 -0.090834 -0.572487 0.000000 -0.000000 -0.000003 -0.151892 -0.964128 21.892404 1.195401 -3.903109 34.045348 0.059234 -0.907366 7.467116 0.000002 0.000001 0.000000 0.777337 -3.318307 35.399248 3.737917 -6.165339 62.423749 0.308061 -2.041393 17.013672 -0.000002 0.000001 -0.000001 7.603943 -9.074009 53.708335 3.698426 -6.144694 62.055650 0.074614 -1.480905 12.100396 0.000001 -0.000001 -0.000003 5.569098 -6.824942 74.894418 2.170156 -5.050468 46.484249 0.133487 -1.358684 11.222440 0.000001 0.000000 -0.000001 -68.932967 -11.897822 13.107118 45.027892 1.817127 6.098769 -2.820538 -0.146442 0.846752 -1.124694 0.000079 -0.099653 -0.000000 -0.000001 -0.000000 -53.902087 -17.412596 1.867561 24.090359 -11.746269 7.303495 7.867487 -18.895512 3.274658 -3.805264 0.168004 -4.241754 -0.000000 -0.000002 -0.000000 
